<?xml version="1.0" standalone="no"?>
<!DOCTYPE svg PUBLIC "-//W3C//DTD SVG 20010904//EN"
 "http://www.w3.org/TR/2001/REC-SVG-20010904/DTD/svg10.dtd">
<svg version="1.0" xmlns="http://www.w3.org/2000/svg"
 width="64.000000pt" height="64.000000pt" viewBox="0 0 64.000000 64.000000"
 preserveAspectRatio="xMidYMid meet">

<g transform="translate(0.000000,64.000000) scale(0.100000,-0.100000)"
fill="#000000" stroke="none">
<path d="M150 570 c0 -5 5 -10 10 -10 6 0 10 5 10 10 0 6 -4 10 -10 10 -5 0
-10 -4 -10 -10z"/>
<path d="M297 563 c-4 -3 -7 -16 -7 -28 0 -14 -13 -30 -37 -46 -59 -38 -73
-76 -73 -201 0 -60 -4 -110 -10 -113 -16 -10 -12 -42 6 -49 9 -3 37 -6 64 -6
39 0 49 -4 53 -20 7 -26 43 -26 59 0 10 16 24 20 64 20 61 0 83 18 66 53 -6
12 -12 70 -15 128 -4 122 -21 163 -77 192 -19 10 -34 22 -32 28 6 24 -10 49
-32 49 -12 0 -26 -3 -29 -7z m46 -17 c8 -20 -20 -43 -35 -28 -14 14 -3 42 16
42 7 0 16 -6 19 -14z m32 -60 c39 -17 75 -68 75 -108 l0 -28 -130 0 -130 0 6
33 c8 44 34 79 75 99 41 22 59 22 104 4z m75 -171 c0 -13 -21 -15 -125 -15
-104 0 -125 2 -125 15 0 13 21 15 125 15 104 0 125 -2 125 -15z m0 -75 l0 -50
-130 0 -130 0 0 30 0 30 66 0 c41 0 63 4 59 10 -3 6 -33 10 -66 10 -38 0 -58
4 -54 10 4 6 58 10 131 10 l124 0 0 -50z m20 -85 c0 -13 -23 -15 -150 -15
-137 0 -163 4 -143 23 3 4 71 7 150 7 120 0 143 -2 143 -15z m-130 -45 c0 -5
-6 -10 -14 -10 -8 0 -18 5 -21 10 -3 6 3 10 14 10 12 0 21 -4 21 -10z"/>
<path d="M347 455 c18 -8 42 -29 53 -47 12 -20 20 -27 20 -16 0 29 -49 78 -78
78 -27 -1 -27 -1 5 -15z"/>
<path d="M487 544 c-15 -15 -7 -53 13 -59 27 -8 52 12 48 39 -3 21 -46 35 -61
20z"/>
<path d="M90 430 c0 -5 5 -10 11 -10 5 0 7 5 4 10 -3 6 -8 10 -11 10 -2 0 -4
-4 -4 -10z"/>
<path d="M83 259 c-27 -10 -31 -50 -8 -69 19 -16 61 -5 67 17 10 39 -21 67
-59 52z"/>
<path d="M565 130 c3 -5 8 -10 11 -10 2 0 4 5 4 10 0 6 -5 10 -11 10 -5 0 -7
-4 -4 -10z"/>
<path d="M100 120 c0 -5 5 -10 10 -10 6 0 10 5 10 10 0 6 -4 10 -10 10 -5 0
-10 -4 -10 -10z"/>
</g>
</svg>
