<?xml version="1.0" standalone="no"?>
<!DOCTYPE svg PUBLIC "-//W3C//DTD SVG 20010904//EN"
 "http://www.w3.org/TR/2001/REC-SVG-20010904/DTD/svg10.dtd">
<svg version="1.0" xmlns="http://www.w3.org/2000/svg"
 width="512.000000pt" height="512.000000pt" viewBox="0 0 512.000000 512.000000"
 preserveAspectRatio="xMidYMid meet">

<g transform="translate(0.000000,512.000000) scale(0.100000,-0.100000)"
fill="#000000" stroke="none">
<path d="M748 4469 c-167 -24 -311 -166 -338 -332 -7 -45 -4 -127 5 -127 5 0
1281 463 1284 466 8 8 -895 1 -951 -7z"/>
<path d="M4720 2601 l0 -121 -496 0 c-552 0 -539 2 -592 -68 l-27 -35 0 -296
0 -296 24 -34 c13 -18 42 -42 65 -52 38 -17 77 -19 629 -19 656 0 631 -2 685
68 l27 35 0 411 c0 393 -1 412 -20 444 -35 59 -76 76 -192 80 l-103 4 0 -121z"/>
<path d="M492 1983 c-18 -9 -45 -32 -60 -51 -27 -35 -27 -37 -30 -224 l-3
-188 1440 0 1441 0 0 173 c0 159 -2 176 -22 217 -17 33 -35 51 -68 68 l-44 22
-1311 0 c-1192 0 -1313 -2 -1343 -17z"/>
<path d="M400 747 c0 -533 0 -533 23 -577 16 -33 34 -51 67 -67 l44 -23 1306
0 1306 0 44 23 c73 36 90 82 89 237 0 87 -3 116 -9 96 -13 -41 -68 -94 -110
-106 -44 -12 -898 -13 -1035 0 -182 16 -333 56 -493 131 -299 138 -574 420
-704 719 l-43 100 -242 0 -243 0 0 -533z"/>
</g>
</svg>
